<svg xmlns="http://www.w3.org/2000/svg" width="49.995" height="50" viewBox="0 0 49.995 50">
  <path id="Path_42" data-name="Path 42" d="M777.047-1964.2a25.035,25.035,0,0,1,25-25,24.774,24.774,0,0,1,9.724,1.97,25.037,25.037,0,0,1,7.949,5.36,25.039,25.039,0,0,1,5.361,7.949h0a24.77,24.77,0,0,1,1.965,9.724,25.027,25.027,0,0,1-25,25A25.027,25.027,0,0,1,777.047-1964.2Zm4.134,0a20.888,20.888,0,0,0,20.864,20.864,20.888,20.888,0,0,0,20.863-20.864,20.888,20.888,0,0,0-20.863-20.864A20.888,20.888,0,0,0,781.182-1964.2Zm16.45,6.487-4.229-4.259a2.069,2.069,0,0,1,.025-2.922,2.082,2.082,0,0,1,2.917.015l2.768,2.787,8.642-8.6a2.044,2.044,0,0,1,1.461-.608,2.065,2.065,0,0,1,1.461.608l.005.01a2.082,2.082,0,0,1-.015,2.917l-10.113,10.053a2.048,2.048,0,0,1-1.456.6A2.068,2.068,0,0,1,797.632-1957.714Z" transform="translate(-777.047 1989.203)" fill="#4b95f9"/>
</svg>
