<svg xmlns="http://www.w3.org/2000/svg" width="43" height="50" viewBox="0 0 43 50">
  <path id="Path_3" data-name="Path 3" d="M148.874,6.691a.4.4,0,0,0-.4-.313A28.841,28.841,0,0,1,128.24.12a.376.376,0,0,0-.51,0A28.881,28.881,0,0,1,107.5,6.378a.383.383,0,0,0-.4.313c-.062.336-6.041,33.517,20.75,43.306a.473.473,0,0,0,.139.023.389.389,0,0,0,.131-.023c26.8-9.79,20.82-42.97,20.758-43.306Zm-20.889,37.86c-19.715-7.3-16.771-30.837-16.3-33.916a24.3,24.3,0,0,0,16.3-5.055,24.36,24.36,0,0,0,16.3,5.055C144.764,13.714,147.715,37.239,127.985,44.552Z" transform="translate(-106.485 -0.021)" fill="#4b95f9"/>
</svg>
